<?xml version="1.0" encoding="UTF-8"?>
<svg version="1.1" xmlns="http://www.w3.org/2000/svg" width="202" height="63">
<path d="M0 0 C66.66 0 133.32 0 202 0 C202 20.79 202 41.58 202 63 C135.34 63 68.68 63 0 63 C0 42.21 0 21.42 0 0 Z " fill="#FDFEFD" transform="translate(0,0)"/>
<path d="M0 0 C1.65 0 3.3 0 5 0 C11.51936219 15.56036446 11.51936219 15.56036446 13 24 C11.35 23.67 9.7 23.34 8 23 C7.67 21.68 7.34 20.36 7 19 C3.7 18.67 0.4 18.34 -3 18 C-3.33 19.98 -3.66 21.96 -4 24 C-5.65 24 -7.3 24 -9 24 C-7.87942681 20.74845669 -6.75277056 17.49905328 -5.625 14.25 C-5.30789062 13.32960938 -4.99078125 12.40921875 -4.6640625 11.4609375 C-4.3546875 10.57148438 -4.0453125 9.68203125 -3.7265625 8.765625 C-3.44377441 7.94868164 -3.16098633 7.13173828 -2.86962891 6.29003906 C-2.04060935 4.10693871 -1.08327115 2.06693116 0 0 Z " fill="#15CB62" transform="translate(100,16)"/>
<path d="M0 0 C4.04381805 0.84246209 5.53235541 2.35899981 8 5.625 C8 7.275 8 8.925 8 10.625 C2.555 11.12 2.555 11.12 -3 11.625 C-2.67 12.285 -2.34 12.945 -2 13.625 C0.97 13.625 3.94 13.625 7 13.625 C7 14.615 7 15.605 7 16.625 C3.40735548 17.82254817 0.77282526 17.95594958 -3 17.625 C-6.30748965 15.01382396 -7.81680509 12.99896185 -8.375 8.8125 C-8 5.625 -8 5.625 -5.875 2.75 C-3 0.625 -3 0.625 0 0 Z " fill="#212638" transform="translate(151,22.375)"/>
<path d="M0 0 C1.32 0 2.64 0 4 0 C4.33 4.95 4.66 9.9 5 15 C5.721875 14.01 6.44375 13.02 7.1875 12 C9.6095123 9.05206503 9.6095123 9.05206503 12.8125 8.625 C13.534375 8.74875 14.25625 8.8725 15 9 C14.62746094 9.45890625 14.25492188 9.9178125 13.87109375 10.390625 C13.39800781 11.00421875 12.92492187 11.6178125 12.4375 12.25 C11.96183594 12.85328125 11.48617187 13.4565625 10.99609375 14.078125 C9.80060231 15.95381404 9.80060231 15.95381404 10.21875 18.1015625 C11.27033763 20.65692044 13.03255272 22.09601876 15 24 C15 24.66 15 25.32 15 26 C12.29068581 25.84518205 10.53415961 25.51827919 8.5546875 23.59765625 C7.32320358 22.10228292 6.1570163 20.5537076 5 19 C4.67 21.31 4.34 23.62 4 26 C2.68 26 1.36 26 0 26 C0 17.42 0 8.84 0 0 Z " fill="#3A2D31" transform="translate(58,14)"/>
<path d="M0 0 C0.33 1.32 0.66 2.64 1 4 C-1.97 4 -4.94 4 -8 4 C-7.55761769 6.37540603 -7.55761769 6.37540603 -6 9 C-4.65547518 9.84238596 -3.27584795 10.63002609 -1.875 11.375 C0.26953125 12.609375 0.26953125 12.609375 2 14 C2.8125 17.625 2.8125 17.625 2 21 C-0.85338326 23.76421504 -3.35440465 24.17319845 -7.1875 24.25 C-11 24 -11 24 -13 23 C-12.67 21.68 -12.34 20.36 -12 19 C-11.34 19.33 -10.68 19.66 -10 20 C-8.62657169 20.0689472 -7.24997898 20.08467708 -5.875 20.0625 C-4.59625 20.041875 -3.3175 20.02125 -2 20 C-2.66446619 17.09296043 -3.47515326 15.39390785 -5.87890625 13.58984375 C-7.31345795 12.70960899 -8.76133525 11.85066557 -10.22265625 11.015625 C-12 10 -12 10 -13 9 C-13.375 6.6875 -13.375 6.6875 -13 4 C-9.02204879 -0.59950609 -5.68246774 -0.38525205 0 0 Z " fill="#242637" transform="translate(52,16)"/>
<path d="M0 0 C2.475 0.495 2.475 0.495 5 1 C5.99 3.97 6.98 6.94 8 10 C9.65 6.7 11.3 3.4 13 0 C13.99 0 14.98 0 16 0 C15.37962475 4.82846281 13.99174385 9.13006 12.1875 13.625 C11.93935547 14.27984375 11.69121094 14.9346875 11.43554688 15.609375 C9.88008089 19.51980856 8.32746842 22.37755954 5 25 C2.25 25.25 2.25 25.25 0 25 C0 24.01 0 23.02 0 22 C1.32 21.67 2.64 21.34 4 21 C5.89387382 14.58996554 3.86547011 10.51711084 1.12890625 4.57421875 C0 2 0 2 0 0 Z " fill="#1C213B" transform="translate(74,23)"/>
<path d="M0 0 C0.33 1.32 0.66 2.64 1 4 C-1.64 4 -4.28 4 -7 4 C-7 6.64 -7 9.28 -7 12 C-3.02245872 12.73334429 -3.02245872 12.73334429 1 13 C1 13.99 1 14.98 1 16 C-1.88861709 17.44430855 -3.79647701 17.37688506 -7 17 C-9.875 14.9375 -9.875 14.9375 -12 12 C-12.5625 8.4375 -12.5625 8.4375 -12 5 C-8.34164784 0.36608726 -5.73802535 -0.12473968 0 0 Z " fill="#252435" transform="translate(127,23)"/>
<path d="M0 0 C2.475 0.495 2.475 0.495 5 1 C7.72502965 0.62277985 7.72502965 0.62277985 10 0 C10 0.99 10 1.98 10 3 C8.35 3.66 6.7 4.32 5 5 C4.67 8.96 4.34 12.92 4 17 C2.68 17 1.36 17 0 17 C0 11.39 0 5.78 0 0 Z " fill="#252140" transform="translate(132,23)"/>
<path d="M0 0 C2.475 0.495 2.475 0.495 5 1 C5.52955234 2.78910903 6.0483937 4.58139148 6.5625 6.375 C6.85253906 7.37273438 7.14257812 8.37046875 7.44140625 9.3984375 C8 12 8 12 7 14 C6.34 14 5.68 14 5 14 C4.16235732 12.04350603 3.33000941 10.08474444 2.5 8.125 C2.0359375 7.03445312 1.571875 5.94390625 1.09375 4.8203125 C0 2 0 2 0 0 Z " fill="#242D49" transform="translate(74,23)"/>
<path d="M0 0 C1 3 1 3 1.3125 4.9375 C2.22653157 7.6795947 3.94820281 9.01438981 6 11 C6 11.66 6 12.32 6 13 C3.29068581 12.84518205 1.53415961 12.51827919 -0.4453125 10.59765625 C-1.67679642 9.10228292 -2.8429837 7.5537076 -4 6 C-2.84826645 3.53199953 -1.95216435 1.95216435 0 0 Z " fill="#1B2742" transform="translate(67,27)"/>
<path d="M0 0 C2.95183101 2.95183101 3.08663988 5.95511947 4 10 C1.69 10 -0.62 10 -3 10 C-2.69201674 8.51988629 -2.378482 7.04092675 -2.0625 5.5625 C-1.88847656 4.73878906 -1.71445313 3.91507813 -1.53515625 3.06640625 C-1 1 -1 1 0 0 Z " fill="#E2F5E6" transform="translate(102,21)"/>
<path d="M0 0 C0.99 0 1.98 0 3 0 C2.44894091 3.9492568 1.61064629 7.34920174 0 11 C-1.32 11 -2.64 11 -4 11 C-3.5247412 9.35303396 -3.04468109 7.70745272 -2.5625 6.0625 C-2.29566406 5.14597656 -2.02882813 4.22945312 -1.75390625 3.28515625 C-1 1 -1 1 0 0 Z " fill="#302D3E" transform="translate(87,23)"/>
<path d="M0 0 C1.11375 0.1546875 1.11375 0.1546875 2.25 0.3125 C-1.18361902 3.94809661 -4.5473607 6.67363346 -8.75 9.3125 C-4.85638298 0.5518617 -4.85638298 0.5518617 0 0 Z " fill="#312D3A" transform="translate(70.75,22.6875)"/>
<path d="M0 0 C1.65 0 3.3 0 5 0 C5.33 1.32 5.66 2.64 6 4 C3.36 4 0.72 4 -2 4 C-1.34 2.68 -0.68 1.36 0 0 Z " fill="#E7ECEA" transform="translate(149,26)"/>
<path d="M0 0 C0.99 0 1.98 0 3 0 C2.42655063 2.86724686 2.1385485 3.8614515 0 6 C-2.625 6.125 -2.625 6.125 -5 6 C-5 5.01 -5 4.02 -5 3 C-4.360625 2.87625 -3.72125 2.7525 -3.0625 2.625 C-2.0415625 2.315625 -2.0415625 2.315625 -1 2 C-0.67 1.34 -0.34 0.68 0 0 Z " fill="#2D2830" transform="translate(79,42)"/>
</svg>
